PathFileType	4	(X/Y/Z)	KinectSkeleton.trc																																																	
DataRate	CameraRate	NumFrames	NumMarkers	Units	OrigDataRate	OrigDataStartFrame	OrigNumFrames																																													
60	60	22	17	mm	60	62	300																																													
Frame#	Time	Neck			ShoulderMid			R.Shoulder			L.Shoulder			R.Elbow			L.Elbow			R.Wrist			L.Wrist			HipCenter			R.Hip			L.Hip			R.Knee			L.Knee			R.Ankle			L.Ankle			R.Foot			L.Foot		
		X1	Y1	Z1	X2	Y2	Z2	X3	Y3	Z3	X4	Y4	Z4	X5	Y5	Z5	X6	Y6	Z6	X7	Y7	Z7	X8	Y8	Z8	X9	Y9	Z9	X10	Y10	Z10	X11	Y11	Z11	X12	Y12	Z12	X13	Y13	Z13	X14	Y14	Z14	X15	Y15	Z15	X16	Y16	Z16	X17	Y17	Z17
																																																				
62	4.254	-1413.887	1444.997	185.37	-1413.887	1444.997	185.37	-1510.455	1438.558	337.824	-1302.12	1332.925	83.198	-1744.371	1310.945	454.2	-1040.262	1293.054	-22.987	-1853.133	1217.535	649.834	-872.064	1456.378	26.003	-1537.531	939.884	371.052	-1576.055	974.114	438.533	-1494.809	901.925	296.219	-1653.547	623.382	642.302	-1480.277	493.41	357.958	-1741.748	273.944	814.095	-1618.012	123.97	332.643	-1630.995	217.23	941.367	-1451.223	29.649	359.3
63	4.33	-1412.99	1443.582	187.386	-1412.99	1443.582	187.386	-1507.004	1439.613	340.568	-1302.339	1332.683	83.816	-1739.325	1301.396	446.135	-1043.397	1291.517	-27.436	-1846.192	1207.563	642.034	-885.943	1463.875	24.016	-1537.201	939.403	372.489	-1574.907	973.602	440.242	-1495.387	901.478	297.353	-1657.035	623.58	641.803	-1480.044	493.399	356.428	-1749.6	275.324	811.917	-1618.162	124.762	333.408	-1635.127	218.23	935.188	-1452	29.776	358.908
64	4.391	-1412.595	1443.373	185.902	-1412.595	1443.373	185.902	-1504.823	1434.656	340.705	-1303.351	1333.318	80.262	-1735.451	1297.772	451.436	-1045.168	1291.959	-32.529	-1852.698	1191.943	634.826	-887.32	1461.799	25.453	-1537.365	939.608	370.763	-1575.535	974.101	438.085	-1495.037	901.357	296.105	-1660.545	622.877	636.162	-1480.531	493.661	357.42	-1756.298	273.19	801.317	-1620.284	125.895	331.806	-1645.974	217.503	928.889	-1455.663	27.897	355.554
65	4.454	-1412.11	1444.54	184.671	-1412.11	1444.54	184.671	-1500.892	1435.781	341.705	-1304.489	1333.647	77.449	-1732.899	1299.285	451.568	-1045.827	1290.05	-34.854	-1853.568	1187.002	629.465	-893.038	1464.788	24.108	-1537.111	939.512	370.317	-1574.381	974.132	438.29	-1495.779	901.119	294.938	-1663.121	621.252	633.501	-1479.964	492.18	353.18	-1762.329	270.327	795.912	-1618.962	122.991	332.055	-1652.753	214.898	924.734	-1451.385	29.36	355.926
66	4.527	-1412.013	1442.871	183.984	-1412.013	1442.871	183.984	-1498.909	1434.953	341.634	-1304.519	1330.644	77.915	-1729.748	1298.958	453.739	-1047.038	1288.017	-36.68	-1850.189	1186.287	631.193	-896.686	1464.956	20.932	-1539.279	938.776	368.756	-1576.523	973.476	436.59	-1497.978	900.296	293.53	-1663.091	620.246	631.215	-1476.822	491.449	347.45	-1761.042	269.43	793.58	-1616.291	122.647	331.063	-1647.862	212.902	918.488	-1449.044	30.208	359.739
67	4.59	-1411.891	1442.982	183.866	-1411.891	1442.982	183.866	-1498.512	1435.156	341.682	-1304.609	1330.675	77.627	-1729.013	1299.249	454.682	-1047.396	1287.861	-37.588	-1848.412	1186.872	633.066	-896.608	1464.593	19.646	-1539.232	938.857	368.694	-1576.454	973.565	436.55	-1497.955	900.367	293.445	-1662.954	620.185	631.043	-1476.991	491.433	347.186	-1760.918	269.226	793.217	-1616.813	122.716	330.681	-1647.024	212.304	917.327	-1449.574	30.132	359.104
68	4.661	-1411.891	1442.982	183.866	-1411.891	1442.982	183.866	-1498.512	1435.156	341.682	-1304.609	1330.675	77.627	-1729.013	1299.249	454.682	-1047.396	1287.861	-37.588	-1848.412	1186.872	633.066	-896.608	1464.593	19.646	-1539.232	938.857	368.694	-1576.454	973.565	436.55	-1497.955	900.367	293.445	-1662.954	620.185	631.043	-1476.991	491.433	347.186	-1760.918	269.226	793.217	-1616.813	122.716	330.681	-1647.024	212.304	917.327	-1449.574	30.132	359.104
69	4.744	-1408.494	1443.578	185.354	-1408.494	1443.578	185.354	-1492.273	1435.718	344.731	-1308.212	1332.771	71.999	-1720.136	1298.647	461.581	-1050.887	1287	-41.794	-1805.872	1186.567	658.529	-877.565	1446.968	-1.641	-1540.006	939.174	368.286	-1575.241	973.908	437.177	-1500.931	900.655	291.889	-1660.203	619.492	630.425	-1481.149	491.809	346.615	-1756.886	268.034	792.249	-1621.115	123.088	331.868	-1642.139	213.565	916.664	-1453.654	29.432	354.91
70	4.821	-1408.921	1443.577	185.078	-1408.921	1443.577	185.078	-1492.208	1435.894	344.683	-1308.813	1332.8	71.562	-1719.418	1299.065	463.068	-1051.806	1287.545	-43.141	-1803.455	1187.751	661.174	-878.928	1448.06	-3.278	-1540.087	939.219	368.265	-1575.293	973.956	437.168	-1501.046	900.696	291.855	-1659.98	619.479	630.411	-1481.593	491.816	346.39	-1756.385	267.995	792.327	-1622.317	123.396	331.488	-1641.484	213.328	916.508	-1454.945	29.549	354.373
71	4.897	-1409.37	1443.695	184.843	-1409.37	1443.695	184.843	-1492.186	1436.164	344.676	-1309.451	1332.964	71.115	-1718.84	1299.633	464.501	-1052.859	1288.193	-44.742	-1801.427	1189.066	663.649	-880.103	1448.996	-5.436	-1540.054	939.299	368.282	-1575.244	974.033	437.2	-1501.029	900.78	291.854	-1659.252	619.396	630.496	-1481.494	491.882	346.405	-1754.904	267.838	792.757	-1622.131	123.402	331.596	-1639.513	213.346	916.575	-1454.545	29.929	354.542
72	4.974	-1407.313	1445.096	187.401	-1407.313	1445.096	187.401	-1480.719	1436.597	350.943	-1311.3	1336.676	68.667	-1704.792	1307.152	482.122	-1060.308	1282.864	-54.555	-1784.572	1195.734	681.595	-891.903	1447.779	-15.112	-1534.734	939.385	368.011	-1569.363	973.905	437.197	-1496.332	901.103	291.285	-1651.106	619.699	631.22	-1486.689	492.282	345.395	-1744.179	268.116	793.776	-1627.393	124.307	330.994	-1630.148	214.927	919.112	-1457.235	35.784	352.696
73	5.037	-1407.097	1446.541	187.694	-1407.097	1446.541	187.694	-1480.342	1440.597	351.149	-1313.893	1337.271	67.625	-1700.837	1312.037	488.506	-1067.695	1274.379	-60.254	-1767.783	1187.235	684.464	-898.524	1438.005	-20.099	-1534.731	941.211	368.382	-1567.107	975.425	438.704	-1498.827	903.269	290.398	-1647.005	620.813	631.921	-1486.038	494.608	342.017	-1739.919	270.003	795.308	-1628.226	127.441	332.748	-1623.773	211.341	915.932	-1461.742	32.356	353.538
74	5.109	-1407.287	1446.111	187.634	-1407.287	1446.111	187.634	-1477.368	1442.051	351.752	-1317.15	1338.001	65.117	-1697.35	1311.549	486.965	-1072.094	1273.244	-62.866	-1753.581	1198.209	692.477	-902.618	1435.631	-21.582	-1532.143	941.338	368.663	-1563.324	975.219	439.498	-1497.564	903.765	290.11	-1642.044	621.155	632.599	-1490.561	495.737	341.826	-1734.207	270.225	794.37	-1625.021	126.493	330.59	-1623.237	210.445	918.782	-1459.258	30.574	349.988
75	5.193	-1407.737	1446.635	189.953	-1407.737	1446.635	189.953	-1475.41	1443.323	354.648	-1319.668	1338.37	66.056	-1694.03	1315.533	493.972	-1077.662	1271.359	-65.876	-1740.268	1196.667	698.565	-910.798	1435.946	-24.056	-1528.899	941.366	371.014	-1558.988	975.016	442.328	-1495.533	904.05	291.929	-1634.913	619.779	633.503	-1495.84	495.815	338.974	-1724.321	267.901	793.771	-1630.181	126.867	330.878	-1614.099	206.399	917.753	-1464.854	31.254	353.34
76	5.253	-1411.418	1450.614	195.101	-1411.418	1450.614	195.101	-1473.256	1445.599	362.345	-1327.772	1342.023	68.026	-1687.385	1317.049	508.539	-1090.358	1270.469	-70.472	-1729.98	1203.598	717.315	-916.171	1426.816	-25.309	-1528.227	942.184	372.928	-1557.208	974.557	445.409	-1496.088	906.284	292.548	-1629.984	616.557	633.751	-1499.819	497.118	335.748	-1716.997	262.211	791.123	-1625.46	124.57	328.727	-1600.712	196.468	907.476	-1457.668	32.484	349.69
77	5.314	-1413.943	1453.985	201.208	-1413.943	1453.985	201.208	-1473.286	1443.85	369.711	-1333.29	1346.288	70.941	-1680.814	1315.572	525.396	-1100.991	1274.293	-75.801	-1725.376	1193.377	728.778	-921.762	1425.185	-31.731	-1523.043	942.298	375.077	-1549.326	973.503	449.09	-1493.896	907.693	292.999	-1618.901	612.651	633.219	-1507.852	498.391	333.002	-1704.311	256.15	786.625	-1624.587	122.866	331.033	-1585.649	186.549	898.259	-1455.078	34.594	354.561
78	5.374	-1417.735	1455.266	210.877	-1417.735	1455.266	210.877	-1472.622	1443.602	379.798	-1341.484	1349.523	76.917	-1673.855	1313.143	539.892	-1117.337	1277.108	-79.927	-1693.104	1200.314	751.438	-934.24	1423.469	-41.594	-1520.095	942.162	378.69	-1544.109	972.303	453.556	-1493.466	908.737	295.667	-1605.979	607.937	629.977	-1517.045	500.804	329.001	-1684.812	249.223	777.856	-1625.546	124.354	334.046	-1567.843	172.74	885.675	-1457.082	34.531	352.96
79	5.448	-1421.029	1459.273	220.48	-1421.029	1459.273	220.48	-1472.1	1443.279	390.921	-1351.107	1357.755	79.087	-1663.718	1309.165	561.21	-1134.104	1279.765	-86.594	-1671.034	1197.303	774.926	-946.206	1421.1	-47.697	-1516.834	940.606	380.749	-1538.797	969.771	456.937	-1492.479	908.263	296.259	-1591.936	597.315	622.144	-1530.818	499.742	325.329	-1664.302	231.926	760.218	-1628.788	119.19	336.472	-1539.61	153.217	858.31	-1457.297	33.339	353.003
80	5.514	-1427.284	1467.042	233.951	-1427.284	1467.042	233.951	-1474.072	1444.964	405.527	-1360.685	1366.781	89.266	-1655.957	1302.795	580.401	-1152.387	1280.439	-83.786	-1643.271	1188.715	792.971	-959.334	1415.895	-47.818	-1509.643	942.033	383.466	-1531.323	968.654	460.754	-1485.602	912.511	297.755	-1574.814	588.816	612.479	-1540.898	505.111	320.596	-1638.842	216.945	737.974	-1624.39	120.838	335.573	-1510.456	133.262	827.103	-1451.832	37.423	355.452
81	5.586	-1429.75	1467.456	251.52	-1429.75	1467.456	251.52	-1472.466	1437.522	423.02	-1371.779	1373.453	99.626	-1642.518	1294.785	608.133	-1175.381	1279.067	-82.044	-1614.248	1184.229	820.546	-980.994	1412.141	-47.378	-1503.951	939.051	389.335	-1524.299	964.187	467.305	-1481.385	911.177	302.868	-1555.268	578.548	604.688	-1541.362	505.067	322.668	-1608.237	201.791	717.774	-1628.137	122.194	335.103	-1472.587	114.085	790.008	-1457.827	34.54	352.437
82	5.65	-1431.627	1467.267	273.463	-1431.627	1467.267	273.463	-1464.946	1431.132	445.476	-1381.157	1377.313	116.118	-1630.533	1281.078	628.345	-1197.675	1284.161	-78.731	-1570.069	1170.214	833.448	-992.133	1399.445	-46.568	-1498.19	934.8	396.658	-1514.663	957.771	476.098	-1479.923	909.326	308.562	-1542.308	567.483	598.951	-1543.906	504.158	325.594	-1596.21	187.797	699.593	-1632.456	122.137	338.188	-1457.281	94.145	755.901	-1462.159	34.125	350.881
83	5.73	-1434.569	1471.834	294.444	-1434.569	1471.834	294.444	-1466.127	1434.506	467.271	-1387.598	1384.716	133.358	-1616.299	1272.806	655.799	-1217.45	1281.041	-70.217	-1539.915	1156.736	854.064	-1007.973	1393.947	-47.176	-1494.909	932.23	401.765	-1511.266	951.731	482.608	-1476.769	910.604	312.113	-1522.122	551.885	582.268	-1545.21	503.927	327.045	-1566.107	163.192	658.488	-1635.163	120.074	337.179	-1421.813	78.549	718.338	-1461.489	36.829	351.281
